<?xml version="1.0" encoding="utf-8"?>
<!-- Generator: Adobe Illustrator 15.1.0, SVG Export Plug-In . SVG Version: 6.00 Build 0)  -->
<!DOCTYPE svg PUBLIC "-//W3C//DTD SVG 1.1//EN" "http://www.w3.org/Graphics/SVG/1.1/DTD/svg11.dtd">
<svg version="1.1" id="Ebene_1" xmlns="http://www.w3.org/2000/svg" xmlns:xlink="http://www.w3.org/1999/xlink" x="0px" y="0px"
	 width="369px" height="35px" viewBox="152.156 42.658 369 35" enable-background="new 152.156 42.658 369 35" xml:space="preserve"
	>
<g>
	<path fill="#1D1D1B" d="M152.156,72.68V57.891h6.816v1.413h-5.07v5.071h4.797v1.348h-4.797v5.544h5.214v1.413H152.156z"/>
	<path fill="#1D1D1B" d="M166.446,72.68l-1.996-4.317l-2.018,4.317h-1.725l2.892-5.456l-2.494-4.868h1.894l1.646,3.766l1.685-3.766
		h1.704l-2.574,4.845l2.867,5.479H166.446z"/>
	<path fill="#1D1D1B" d="M174.101,72.83c-1.026,0-1.762-0.328-2.367-1.158v4.94h-1.601V64.764c0-0.588-0.02-1.82-0.075-2.407h1.583
		v1.247c0.604-0.971,1.47-1.483,2.555-1.483c2.847,0,3.064,2.716,3.064,5.216C177.26,69.87,177.118,72.83,174.101,72.83z
		 M173.734,63.366c-1.761,0-2.037,2.111-2.037,4.265c0,1.817,0,4.006,2.037,4.006c1.913,0,1.858-2.755,1.858-4.321
		C175.592,65.609,175.573,63.366,173.734,63.366z"/>
	<path fill="#1D1D1B" d="M180.921,67.742v0.697c0,1.707,0.131,3.271,1.874,3.271c1.526,0,1.818-1.065,1.858-2.262h1.612
		c-0.104,2.112-0.952,3.438-3.469,3.438c-3.159,0-3.546-2.261-3.546-4.947c0-2.773,0.162-5.818,3.658-5.818
		c3.339,0,3.414,2.659,3.414,5.159v0.463L180.921,67.742L180.921,67.742z M184.635,65.318c-0.093-1.066-0.498-2.007-1.744-2.007
		c-1.271,0-1.762,0.847-1.895,1.988c-0.035,0.424-0.074,0.878-0.074,1.338h3.751C184.672,66.212,184.672,65.789,184.635,65.318z"/>
	<path fill="#1D1D1B" d="M191.823,72.887c-3.215,0-3.545-2.13-3.545-5.202c0-2.773,0.183-5.566,3.584-5.566
		c2.442,0,3.178,1.082,3.178,3.356h-1.584c0-1.189-0.237-2.167-1.613-2.167c-1.895,0-1.874,2.262-1.874,4.192
		c0,2.991,0.33,4.207,1.819,4.207c1.414,0,1.648-1.065,1.669-2.245h1.584C195.038,71.321,194.397,72.887,191.823,72.887z"/>
	<path fill="#1D1D1B" d="M200.329,72.774c-1.963,0-2.35-0.753-2.35-2.554v-6.685h-1.526v-1.179h1.526v-1.895l1.634-0.717v2.612
		h1.837v1.179h-1.837v6.485c0,1.189,0.261,1.455,1.157,1.455c0.237,0,0.461-0.04,0.734-0.077v1.283
		C201.12,72.737,200.715,72.774,200.329,72.774z"/>
	<path fill="#1D1D1B" d="M210.823,72.774c-1.963,0-2.349-0.753-2.349-2.554v-6.685h-1.527v-1.179h1.527v-1.895l1.632-0.717v2.612
		h1.837v1.179h-1.837v6.485c0,1.189,0.294,1.455,1.159,1.455c0.237,0,0.459-0.04,0.734-0.077v1.283
		C211.615,72.737,211.21,72.774,210.823,72.774z"/>
	<path fill="#1D1D1B" d="M219.194,72.68v-6.61c0-1.194,0.02-2.703-1.584-2.703c-1.616,0-2.094,1.358-2.094,3.033v6.28h-1.632V57.891
		h1.632v5.644c0.644-0.866,1.413-1.413,2.594-1.413c2.093,0,2.715,1.378,2.715,3.235v7.326h-1.631V72.68L219.194,72.68z"/>
	<path fill="#1D1D1B" d="M224.737,67.742v0.697c0,1.707,0.162,3.271,1.906,3.271c1.527,0,1.818-1.065,1.857-2.262h1.584
		c-0.074,2.112-0.922,3.438-3.439,3.438c-3.158,0-3.545-2.261-3.545-4.947c0-2.773,0.132-5.818,3.657-5.818
		c3.309,0,3.383,2.659,3.383,5.159v0.463L224.737,67.742L224.737,67.742z M228.482,65.318c-0.094-1.066-0.528-2.007-1.744-2.007
		c-1.302,0-1.762,0.847-1.895,1.988c-0.036,0.424-0.105,0.878-0.105,1.338h3.783C228.519,66.212,228.519,65.789,228.482,65.318z"/>
	<path fill="#1D1D1B" d="M243.221,72.076c-0.492,0.462-1.104,0.774-2.057,0.774c-1.158,0-1.839-0.405-2.443-1.376l-0.018,1.208
		h-1.564c0.021-0.511,0.075-1.472,0.075-1.982V57.893h1.634v5.513c0.647-0.886,1.451-1.282,2.448-1.282
		c0.952,0,1.615,0.313,2.056,0.821c0.898,0.962,0.991,2.704,0.991,4.396C244.341,69.061,244.248,71.031,243.221,72.076z
		 M242.137,64.027c-0.295-0.404-0.681-0.698-1.303-0.698c-0.661,0-1.104,0.311-1.415,0.735c-0.621,0.847-0.64,2.335-0.64,3.507
		c0,1.033-0.021,2.262,0.436,3.071c0.28,0.586,0.772,1.011,1.601,1.011c0.641,0,1.009-0.333,1.302-0.774
		c0.479-0.772,0.556-1.84,0.556-3.564C242.671,66.232,242.671,64.82,242.137,64.027z"/>
	<path fill="#1D1D1B" d="M247.999,67.742v0.697c0,1.707,0.133,3.271,1.876,3.271c1.526,0,1.818-1.065,1.856-2.262h1.614
		c-0.073,2.112-0.952,3.438-3.469,3.438c-3.159,0-3.546-2.261-3.546-4.947c0-2.773,0.162-5.818,3.688-5.818
		c3.308,0,3.383,2.659,3.383,5.159v0.463L247.999,67.742L247.999,67.742z M251.713,65.318c-0.092-1.066-0.498-2.007-1.74-2.007
		c-1.274,0-1.735,0.847-1.898,1.988c-0.036,0.424-0.075,0.878-0.075,1.338h3.753C251.752,66.212,251.752,65.789,251.713,65.318z"/>
	<path fill="#1D1D1B" d="M258.351,72.867c-1.944,0-2.973-0.866-3.104-2.63c-0.018-0.197-0.018-0.439-0.018-0.717h1.633
		c0,0.169,0,0.406,0.018,0.588c0.076,0.96,0.442,1.602,1.509,1.602c1.029,0,1.545-0.606,1.545-1.586
		c0-1.265-0.679-1.631-1.857-2.273c-1.414-0.754-2.611-1.251-2.611-3.031c0-1.841,1.309-2.7,3.055-2.7
		c1.781,0,2.696,0.679,2.922,2.254c0.037,0.226,0.055,0.518,0.055,0.812h-1.601c0-0.236-0.019-0.441-0.036-0.66
		c-0.093-0.734-0.425-1.253-1.413-1.253c-0.83,0-1.379,0.556-1.379,1.414c0,0.998,0.898,1.452,2.057,2.063
		c1.271,0.697,2.461,1.356,2.461,3.104C261.585,71.927,260.319,72.867,258.351,72.867z"/>
	<path fill="#1D1D1B" d="M266.889,72.774c-1.932,0-2.318-0.753-2.318-2.554v-6.685h-1.527v-1.179h1.527v-1.895l1.602-0.717v2.612
		h1.868v1.179h-1.868v6.485c0,1.189,0.293,1.455,1.189,1.455c0.207,0,0.46-0.04,0.734-0.077v1.283
		C267.712,72.737,267.306,72.774,266.889,72.774z"/>
	<path fill="#1D1D1B" d="M270.114,72.68v-1.943h1.727v1.943H270.114z"/>
</g>
<g>
	<path fill="#F15507" d="M297.708,72.689c-0.246-1.418-0.317-2.762-0.317-4.253c0-1.169-0.036-2.407-0.108-3.543
		c-0.247-3.222-0.847-4.111-4.106-4.111h-2.024v11.905h-5.949V44.27h9.673c4.995,0,8.788,0.992,8.788,7.438
		c0,3.651-1.099,6.166-4.893,6.948c3.759,0.316,4.468,2.161,4.57,6.911c0.036,1.172,0.07,2.269,0.107,3.297
		c0.071,1.417,0.179,2.584,0.462,3.825L297.708,72.689L297.708,72.689z M293.529,48.419h-2.412v8.257h2.099
		c3.22,0,4.457-1.101,4.457-4.287C297.673,49.408,296.221,48.419,293.529,48.419z"/>
	<path fill="#F15507" d="M308.479,72.689V44.272H324v4.215h-9.603v7.445h8.786v4.109h-8.786v8.432h9.848v4.218h-15.767V72.689z"/>
	<path fill="#F15507" d="M334.066,48.487v7.581h8.47v4.077h-8.47V72.69h-5.952V44.273h14.81v4.216h-8.857V48.487z"/>
	<path fill="#F15507" d="M358.906,72.689c-0.251-1.418-0.321-2.762-0.321-4.253c0-1.169-0.031-2.407-0.104-3.543
		c-0.247-3.222-0.851-4.111-4.11-4.111h-2.023v11.905h-5.949V44.27h9.671c4.996,0,8.79,0.992,8.79,7.438
		c0,3.651-1.098,6.166-4.892,6.948c3.762,0.316,4.467,2.161,4.536,6.911c0.035,1.172,0.104,2.269,0.139,3.297
		c0.077,1.417,0.182,2.584,0.464,3.825L358.906,72.689L358.906,72.689z M354.723,48.419h-2.441v8.257h2.124
		c3.225,0,4.463-1.101,4.463-4.287C358.867,49.408,357.413,48.419,354.723,48.419z"/>
	<path fill="#F15507" d="M384.237,72.689l-1.558-6.306h-8.223l-1.56,6.306h-5.985l7.796-28.416h7.937l7.765,28.416H384.237z
		 M378.466,48.773l-3.02,13.496h6.169L378.466,48.773z"/>
	<path fill="#1D1D1B" d="M400.576,46.965v25.723h-3.33V46.965h-6.559v-2.696h16.476v2.696H400.576z"/>
	<path fill="#1D1D1B" d="M410.57,72.689V44.272h13.075v2.695h-9.741v9.744h9.243v2.654h-9.243v10.597h10.024v2.729H410.57V72.689z"
		/>
	<path fill="#1D1D1B" d="M435.905,73.223c-8.009,0-8.29-5.851-8.29-14.601c0-7.832,0.103-14.918,8.61-14.918
		c5.564,0,7.546,2.974,7.546,7.903v0.637h-3.362v-0.499c0-2.761-0.714-5.313-4.254-5.313c-4.859,0-5.068,4.859-5.068,12.049
		c0,8.187,0.247,12.083,4.818,12.083c3.863,0,4.677-2.623,4.677-5.813v-0.565h3.437v0.638
		C444.018,70.281,441.429,73.223,435.905,73.223z"/>
	<path fill="#1D1D1B" d="M461.488,72.689V59.364h-9.568v13.324h-3.33V44.272h3.33v12.404h9.568V44.272h3.364v28.416L461.488,72.689
		L461.488,72.689z"/>
	<path fill="#1D1D1B" d="M483.74,72.689l-9.533-25.548v25.548h-3.078V44.272h5.204l9.533,25.546V44.272h3.082v28.416L483.74,72.689
		L483.74,72.689z"/>
	<path fill="#1D1D1B" d="M495.22,72.689V44.272h3.334v28.416L495.22,72.689L495.22,72.689z"/>
	<path fill="#1D1D1B" d="M504.856,72.689V44.272h3.333v28.416L504.856,72.689L504.856,72.689z M517.224,72.689l-8.891-15.27
		l8.646-13.148h3.862l-9.002,13.074l9.316,15.342h-3.932V72.689z"/>
</g>
</svg>
